# xmcd CD database file
#
# Track frame offsets:
#	150
#	93000
#	135442
#
# Disc length: 2370 seconds
#
# Revision: 5
# Processed by: cddbd v1.4PL0 Copyright (c) Steve Scherf et al.
# Submitted via: CDex 1.51
#
DISCID=17094003
DTITLE=Evan Parker - 50th Birthday Concert [CD2]
DYEAR=1994
DGENRE=Jazz
TTITLE0=In exultation
TTITLE1=Not backwards, as in doubt
TTITLE2=The echoing border zones
EXTD=YEAR: 1994
EXTT0=
EXTT1=
EXTT2=
PLAYORDER=
